<svg data-noselect="" viewBox="0 0 400 300" width="400" height="300" preserveAspectRatio="none" version="1.1" xmlns="http://www.w3.org/2000/svg" style="background: rgba(255, 255, 255, 0);"><defs></defs> <g id="shape_qDqUpMX6dN" transform="translate(25.45068928950159,122.3711221254687) rotate(0,41.5,41) scale(0.848356309650053,0.848356309650053)" filter="" style="cursor: move; opacity: 1;"><g><rect fill="rgba(0,0,0,0)" width="103" height="102" x="-10" y="-10"></rect><svg xmlns="http://www.w3.org/2000/svg" xmlns:xlink="http://www.w3.org/1999/xlink" shape-rendering="auto" text-rendering="auto" width="83" contentscripttype="text/ecmascript" color-rendering="auto" color-interpolation="auto" xml:space="preserve" preserveAspectRatio="none" viewBox="0 0 83.033 82.294" image-rendering="auto" zoomAndPan="magnify" version="1.1" contentstyletype="text/css" x="0px" enable-background="new 0 0 83.033 82.294" height="82" y="0px" data-parent="shape_qDqUpMX6dN">
 <g fill="#009944" id="layer2">
  <path clip-rule="evenodd" d="M39.646,3C19.406,3,3,19.407,3,39.648   c0,20.238,16.406,36.646,36.646,36.646c20.24,0,36.648-16.407,36.648-36.646C76.294,19.407,59.886,3,39.646,3L39.646,3z    M39.646,59.677c-11.06,0-20.028-8.967-20.028-20.028c0-11.062,8.969-20.03,20.028-20.03c11.063,0,20.03,8.968,20.03,20.03   C59.676,50.71,50.708,59.677,39.646,59.677L39.646,59.677z" fill-rule="evenodd"></path>
  <path clip-rule="evenodd" d="M60.601,70.931v4.803h16.433V40.635   C76.94,53.291,70.435,64.417,60.601,70.931L60.601,70.931z" fill-rule="evenodd"></path>
  <path clip-rule="evenodd" d="M77.033,38.704V4.332H60.601v4.075   C70.435,14.919,76.94,26.047,77.033,38.704L77.033,38.704z" fill-rule="evenodd"></path>
 </g>
 <g fill="#FFFFFF" id="layer1">
  <polygon clip-rule="evenodd" fill-rule="evenodd" points="39.646,64.78 39.646,14.514 39.646,64.78  "></polygon>
  <polygon clip-rule="evenodd" fill-rule="evenodd" points="14.513,39.648 64.781,39.648 14.513,39.648  "></polygon>
  <path d="M39.646,26.266c-7.39,0-13.38,5.992-13.38,13.382c0,7.389,5.99,13.38,13.38,13.38s13.382-5.991,13.382-13.38   C53.027,32.258,47.035,26.266,39.646,26.266"></path>
 </g>
 <!--Copyright (c) Logomaker.com.cn  @2015-05-19-->
</svg></g> <!----></g><g id="shapge_HefrpR0MXN" transform="translate(54.294803817603395,196.08989031303912) rotate(0,47.5,14.514500000000002) scale(0.848356309650053,0.848356309650053)" filter="" style="cursor: move; opacity: 1;"><g><svg xmlns="http://www.w3.org/2000/svg" version="1.1" xmlns:xlink="http://www.w3.org/1999/xlink" overflow="hidden" style="top:0; left: 0" width="95" height="29.029000000000003" viewBox="0 0 95 29.029000000000003" preserveAspectRatio="none" data-parent="shapge_HefrpR0MXN"><rect fill="rgba(0,0,0,0)" width="95" height="29.029000000000003"></rect> <rect opacity="0"></rect><g transform="translate(0 0)" data-width="58"><path fill="rgb(0, 0, 0)" d="M7.89-8.50L21.05-8.50L21.05-11.31L24.36-11.31L24.36-1.54L16.10-1.54L15.34-2.90L21.05-2.90L21.05-4.32L7.89-4.32L7.89-1.54L4.58-1.54L4.58-11.31L21.05-11.31L20.30-9.92L7.89-9.92L7.89-8.50ZM25.09-18.01L24.33-16.62L16.12-16.62L16.12-15.78L24.65-15.78L23.90-14.38L16.12-14.38L16.12-13.54L25.38-13.54L24.62-12.15L3.60-12.15L3.60-13.54L12.82-13.54L12.82-14.38L4.29-14.38L4.29-15.78L12.82-15.78L12.82-16.62L3.86-16.62L3.86-18.01L12.82-18.01L12.82-19.37L16.12-19.37L16.12-18.01L25.09-18.01ZM7.89-5.71L21.05-5.71L21.05-7.13L7.89-7.13L7.89-5.71Z" transform="translate(0 24.94)"></path><path fill="rgb(0, 0, 0)" d="M2.96-3.07L2.96-8.55L9.60-16.27L2.52-16.27L2.52-17.60L12.24-17.60L12.24-19.20L16.70-19.20L16.70-17.60L26.42-17.60L25.64-16.27L14.01-16.27L10.47-12.06L12.73-12.06L12.73-3.42L16.18-3.86L15.37-2.41L9.25-1.71L9.25-10.59L2.96-3.07ZM25.26-1.86L20.73-1.86L13.49-11.51L17.92-11.51L20.10-8.64L22.88-12.73L26.45-12.73L23.49-8.32L20.33-8.32L25.26-1.86Z" transform="translate(29 24.94)"></path></g></svg></g> <!----></g><g id="shape_Mi3eid47UY" transform="translate(847.932131495228,64.6828930692651) rotate(0,60,60) scale(0.848356309650053,0.848356309650053)" filter="" style="cursor: move; opacity: 1;"><g><rect fill="rgba(0,0,0,0)" width="140" height="140" x="-10" y="-10"></rect><svg version="1.1" id="图层_1" xmlns="http://www.w3.org/2000/svg" xmlns:xlink="http://www.w3.org/1999/xlink" x="0px" y="0px" width="120" height="120" viewBox="0 0 1417.32 1417.32" style="enable-background:new 0 0 1417.32 1417.32;" xml:space="preserve" preserveAspectRatio="none" data-parent="shape_Mi3eid47UY">
<g>
	<path style="" d="M684.683,1088.13c4.136,0.538,8.925,1.161,14.352,1.867c-2.667,9.894-2.826,17.803,7.363,16.632
		c6.024-6.814,10.515-11.893,15.913-17.997c-2.431-5.044-6.431-11.54-8.784-18.586c-5.77-17.277-3.095-35.579-4.984-52.807
		c-2.017-18.394,3.284-35.379,1.582-53.061c-1.553-16.13-1.631-32.405-2.224-48.622c-0.214-5.843-0.034-11.701-0.034-17.346
		c0.803-6.518,1.605-12.225,2.144-17.957c0.136-1.442-0.731-2.95-0.865-4.452c-0.941-10.542-3.89-21.444-2.175-31.548
		c2.124-12.514-2.682-13.865-12.977-12.904c0,18.022,4.158,36.904-1.162,52.566c-5.389,15.866,4.997,32.479-5.369,45.454
		c2.574,5.32,6.76,10.061,6.718,14.764c-0.072,7.902-3.169,15.73-4.349,23.685c-0.853,5.751-3.26,14.176-0.476,17.05
		c11.122,11.479-9.886,25.673,4.108,35.927c0.175,0.128-0.317,1.699-0.862,2.201c-12.889,11.876,1.773,21.346,1.782,32.991
		c-2.522,1.12-6.228,2.767-9.7,4.31C684.683,1069.448,684.683,1078.51,684.683,1088.13z" fill="#C30D23"></path>
	<path style="" d="M718.111,731.272c0.543,1.194,1.087,2.387,1.63,3.581c6.691-3.662,14.921-5.96,19.684-11.331
		c5.953-6.713-0.876-33.079-8.546-39.994c-10.57-9.53-28.433-8.142-41.816-3.442c-17.962,6.309-16.535,19.921-16.547,32.777
		c-0.013,14.149,22.147,26.056,36.457,20.984C711.949,732.792,715.061,732.12,718.111,731.272z" fill="#C30D23"></path>
	<path style="" d="M707.456,482.864c-10.387-2.901-12.982-7.624-5.834-15.057c0.885-0.92,1.369-3.466,0.748-4.404
		c-6.192-9.347-4.505-19.657-4.264-29.871c0.062-2.642-1.197-5.316-2.33-9.932c-3.164,3.456-6.402,5.334-6.533,7.408
		c-0.801,12.646,6.317,25.127,0.331,38.069c-1.999,4.322-2.929,9.466-3.05,14.268c-0.371,14.673,1.708,29.644-0.516,43.98
		c-3.469,22.36,2.224,43.188,6.003,64.562c1.441,8.151,2.945,17.665,0.137,24.893c-4.985,12.832,4.417,16.121,10.715,22.693
		c3.751-8.009,6.23-15.714,7.353-23.612c0.532-3.738-2.223-7.838-2.261-11.785c-0.065-6.715,2.964-14.172,0.946-20.026
		c-6.512-18.89-7.247-37.929-5.436-57.426c0.237-2.545-1.187-5.24-0.977-7.794C703.429,507.394,693.657,494.952,707.456,482.864z" fill="#C30D23"></path>
	<path style="" d="M970.901,707.068c-4.97-2.919-9.233-5.422-10.941-6.425c-7.565,0.697-12.72,1.172-19.642,1.809
		c0.52,1.201,0.994,3.972,2.601,5.673c3.891,4.118,7.965,8.254,12.641,11.37c2.903,1.935,7.038,2.019,10.621,2.934
		c2.105-10.437,10.537-5.752,16.233-6.187c5.643-0.431,11.471,2.099,17.184,1.956c11.748-0.293,24.303,0.832,34.981-2.969
		c11.486-4.089,22.017,0.029,32.83-1.41c5.037-0.67,10.166-3.071,14.984-2.484c11.848,1.445,23.54,4.169,35.297,6.378
		c1.424-8.685-12.119-21.646-22.278-20.808c-10.651,0.878-21.338,2.895-31.93,2.471c-9.806-0.393-19.461-3.73-29.283-4.976
		c-3.271-0.415-7.357,0.85-10.206,2.687c-11.391,7.347-24.547,7.348-36.182,4.805C979.803,700.144,974.971,698.74,970.901,707.068z" fill="#C30D23"></path>
	<path style="" d="M1032.141,493.107c-1.668,0.817-3.336,1.635-5.004,2.452c2.756,5.433,6.073,10.667,8.098,16.36
		c1.751,4.923,2.118,10.356,2.942,15.587c0.864,5.488,0.108,11.765,2.553,16.375c9.683,18.26,12.683,38.498,18.114,57.959
		c4.443,15.921,6.677,32.448,10.448,48.576c0.709,3.031,4.049,5.447,6.175,8.147c1.03-0.471,2.06-0.942,3.089-1.414
		c0-14.281,0.58-28.593-0.211-42.83c-0.498-8.975-2.53-17.972-4.81-26.715c-2.708-10.382-6.205-20.578-9.777-30.708
		c-2.217-6.288-5.174-12.317-7.866-18.433c-1.612-3.663-3.372-7.261-5.034-10.903c-2.555-5.594-7.478-11.364-7.108-16.765
		C1044.45,500.592,1039.187,496.718,1032.141,493.107z" fill="#C30D23"></path>
	<path style="" d="M903.672,348.162c-0.627,0.824-1.253,1.648-1.88,2.472c0.696,1.648,0.918,4.018,2.161,4.836
		c15.302,10.063,31.453,18.984,45.948,30.077c11.976,9.166,24.277,19.374,32.352,31.777c8.922,13.705,27.455,21.43,26.681,41.618
		c-0.18,4.697,3.164,9.529,5.9,17.103c2.958,2.519,8.503,7.241,15.217,12.958c2.016-5.518,3.355-9.185,4.901-13.416
		c-14.37-6.886-21.71-18.054-22.651-33.731c-0.194-3.229-2.53-6.88-4.914-9.331c-10.54-10.84-22.808-20.283-31.889-32.185
		c-10.765-14.109-23.275-25.596-38.26-34.482C926.372,359.415,914.883,354.023,903.672,348.162z" fill="#C30D23"></path>
	<path style="" d="M406.981,701.899c-4.659,6.968-11.761,13.04-23.527,4.71c-1.763-1.249-5.654,0.508-8.561,0.874
		c1.016,2.871,1.251,7.25,3.224,8.273c3.246,1.682,7.698,1.895,11.501,1.471c8.678-0.967,17.233-3.409,25.911-3.87
		c6.033-0.32,12.191,2.45,18.288,2.427c10.011-0.038,20.012-1.351,30.03-1.869c5.099-0.264,10.413-0.828,15.307,0.233
		c16.479,3.573,32.624,3.677,49.271-3.769c-5.847-4.025-13.384-9.645-18.444-7.935c-18.358,6.201-36.942,2.143-55.293,3.806
		c-8.985,0.814-17.93,2.182-26.882-3.833C423.377,699.44,415.296,701.899,406.981,701.899z" fill="#C30D23"></path>
	<path style="" d="M396.816,954.882c-0.986,0.923-1.971,1.846-2.957,2.769c20.253,32.01,45.943,59.598,72.78,86.222
		c0.301,0.298,2.552-1.369,4.714-2.579c-13.244-15.813-25.915-30.941-37.811-45.143c1.341-10.714,4.261-22.079,3.386-33.144
		c-0.333-4.206-9.391-7.721-15.334-12.201c-1.076,9.718-1.755,15.848-2.75,24.836C410.022,967.328,403.419,961.105,396.816,954.882z
		" fill="#C30D23"></path>
	<path style="" d="M950.403,1084.684c8.133-13.329,12.094,6.128,18.112,1.037c-0.283-4.984-0.547-9.628-0.95-16.731
		c4.637,5.799,7.69,11.88,9.516,11.532c11.479-2.19,24.113-3.592,33.529-9.657c7.58-4.882,11.159-15.976,16.361-24.078
		c20.644,6.248,14.043-11.328,19.238-22.98c-11.511,10.04-21.896,16.911-29.331,26.154c-8.597,10.688-19.583,12.98-33.134,15.703
		c2.496-3.958,4.042-6.408,5.587-8.859c-0.976-1.051-1.951-2.102-2.927-3.153C971.685,1059.45,961.911,1072.02,950.403,1084.684z" fill="#C30D23"></path>
	<path style="" d="M936.47,710.215c-8.308-8.306-13.926-12.24-22.921-7.53c-3.706,1.94-9.217,0.622-13.896,0.471
		c-9.076-0.292-18.141-0.978-27.217-1.163c-5.485-0.112-11.88,2.314-16.278,0.237c-7.958-3.758-12.715-1.419-17.794,4.251
		c4.848,7.296,10.418,9.204,18.2,4.987c2.353-1.275,5.849-0.5,8.823-0.56c14.416-0.292,28.634-1.718,43.169,2.187
		C916.187,715.146,925.331,711.575,936.47,710.215z" fill="#C30D23"></path>
	<path style="" d="M660.132,1085.949c-4.164-1.307-7.934-3.09-11.87-3.606c-9.431-1.238-20.548-5.337-28.001-1.869
		c-8.833,4.11-16.741,4.051-23.286,0.676c-8.014-4.133-14.096-1.13-20.613,1.094c-1.893,0.646-2.466,5.158-3.644,7.898
		c8.407,1.353,17.566,5.501,25.066,3.484c16.124-4.337,31.526-6.135,47.59-1.029C651.706,1094.61,658.787,1096.854,660.132,1085.949
		z" fill="#C30D23"></path>
	<path style="" d="M1074.678,759.355c-0.7,5.604-1.137,6.561-0.853,7.195c7.225,16.085,18.145,31.673,5.784,50.157
		c-0.638,0.954,1.156,4.753,2.735,5.706c2.838,1.713,8.826,3.73,9.216,3.073c2.361-3.972,4.587-8.608,4.822-13.128
		c0.384-7.405-4.159-18.28-0.693-21.726c11.699-11.632-3.718-15.043-5.442-22.045
		C1089.344,764.921,1081.261,763.023,1074.678,759.355z" fill="#C30D23"></path>
	<path style="" d="M625.159,721.758c-0.224-4.673,0.989-9.941-0.858-11.441c-3.679-2.989-9.034-5.317-13.709-5.338
		c-6.389-0.029-14.88,5.626-18.814,3.115c-15.143-9.666-30.359-2.186-45.395-2.694c-2.371-0.08-4.854,3.134-7.284,4.825
		c3.088,1.606,6.157,4.528,9.269,4.576c9.958,0.152,19.928-0.876,29.902-1.222c6.387-0.221,12.788-0.041,21.326-0.041
		C605.719,715.506,614.319,718.272,625.159,721.758z" fill="#C30D23"></path>
	<path style="" d="M441.05,387.646c6.452-6.618,12.3-13.322,18.975-19.064c2.195-1.888,6.532-1.705,9.891-1.71
		c3.782-0.006,7.566,0.845,11.348,1.323c0.232-2.473,0.465-4.946,0.697-7.418c-9.279-1.153-18.559-2.305-23.815-2.958
		c-11.117,5.743-19.13,9.883-24.493,12.654C436.241,376.481,438.286,381.229,441.05,387.646z" fill="#C30D23"></path>
	<path style="" d="M514.74,1066.446c-0.589,1.052-1.177,2.103-1.766,3.155c4.553,3.785,8.567,8.831,13.784,11.065
		c8.292,3.551,17.3,5.662,26.193,7.452c3.057,0.615,6.675-1.555,10.037-2.453c-1.215-2.838-1.869-7.674-3.735-8.199
		C544.546,1073.328,529.607,1070.014,514.74,1066.446z" fill="#C30D23"></path>
	<path style="" d="M374.548,919.861c1.663-1.095,3.326-2.191,4.988-3.286c-3.275-4.979-6.851-9.789-9.762-14.973
		c-6.536-11.637-12.665-23.502-19.124-35.183c-2.206-3.99-4.902-7.708-7.375-11.55c-1.102,0.772-2.204,1.543-3.306,2.315
		C351.826,877.878,357.789,902.102,374.548,919.861z" fill="#C30D23"></path>
	<path style="" d="M801.53,1088.746c0.322,0.505,0.643,1.01,0.965,1.515c4.937-2.147,9.717-4.862,14.855-6.285
		c5.492-1.521,11.446-1.361,16.953-2.845c2.972-0.801,5.431-3.505,8.122-5.35c-3.061-0.569-6.125-1.637-9.183-1.619
		c-13.329,0.075-25.878,10.481-39.988,3.065c-0.704-0.37-4.983,3.368-5.105,5.347c-0.121,1.956,2.534,5.039,4.676,5.931
		C795.327,1089.544,798.594,1088.746,801.53,1088.746z" fill="#C30D23"></path>
	<path style="" d="M583.549,347.585c-3.307,10.435,1.577,13.315,8.767,13.088c12.501-0.394,24.984-1.478,37.458-2.483
		c2.472-0.199,4.867-1.349,7.298-2.061c-0.027-1.546-0.053-3.092-0.08-4.638c-10.193,0-20.472-0.809-30.551,0.262
		C598.713,352.574,590.912,358.818,583.549,347.585z" fill="#C30D23"></path>
	<path style="" d="M687.078,398.18c0.2,3.727-0.09,8.892,0.861,13.817c1.958,10.141,13.724,13.907,17.103,10.093
		c-3.365-12.376-6.054-22.265-8.65-31.812C693.847,392.437,690.74,395.073,687.078,398.18z" fill="#C30D23"></path>
	<path style="" d="M1068.292,827.816c3.27,6.621,4.873,9.306,5.957,12.186c1.901,5.05,2.766,14.195,5.325,14.658
		c11.703,2.117,5.301-7.336,5.911-12.069c0.555-4.306,1.639-11.032-0.513-12.621
		C1081.644,827.515,1075.758,828.528,1068.292,827.816z" fill="#C30D23"></path>
	<path style="" d="M1059.131,877.002c-8.955,0.51-8.955,0.51-6.614,13.064c10.744,0.193,10.744,0.193,17.939-32.299
		c-4.859,1.858-8.756,3.348-12.266,4.691C1058.554,868.089,1058.843,872.545,1059.131,877.002z" fill="#C30D23"></path>
	<path style="" d="M515.719,1091.777c4.784,13.572,14.958,18.111,47.993,20.911
		C545.499,1104.752,529.735,1097.883,515.719,1091.777z" fill="#C30D23"></path>
	<path style="" d="M742.989,1080.078c-0.422,1.905-0.845,3.81-1.267,5.715c3.533,1.031,7.035,2.187,10.606,3.059
		c3.905,0.954,7.861,1.714,11.819,2.422c1.934,0.346,3.924,0.38,5.889,0.555c-0.697-2.331-0.943-6.394-2.164-6.711
		C759.693,1082.993,751.307,1081.665,742.989,1080.078z" fill="#C30D23"></path>
	<path style="" d="M846.147,330.57c-0.658,1.635-1.315,3.271-1.973,4.906c10.201,3.701,20.401,7.401,30.602,11.102
		c0.568-1.69,1.136-3.379,1.705-5.069C866.369,337.863,856.258,334.217,846.147,330.57z" fill="#C30D23"></path>
	<path style="" d="M859.077,1055.471c-2.713,8.055-17.796,9.076-8.454,20.045c5.893-3.279,11.198-6.23,17.273-9.61
		C865.77,1063.391,863.207,1060.358,859.077,1055.471z" fill="#C30D23"></path>
	<path style="" d="M691.849,380.626c0.986,0.524,1.972,1.049,2.958,1.573c2.728-4.584,5.456-9.168,8.185-13.752
		c-3.857-1.591-7.715-3.183-13.037-5.379C690.822,371.103,691.336,375.864,691.849,380.626z" fill="#C30D23"></path>
	<path style="" d="M740.544,341.875c-2.957-9.07-3.793-9.278-26.129-4.586
		C722.815,338.763,731.216,340.237,740.544,341.875z" fill="#C30D23"></path>
	<path style="" d="M836.185,338.466c0.652-1.804,1.305-3.607,1.957-5.411c-8.024-2.267-16.049-4.533-24.073-6.8
		c-0.463,1.38-0.925,2.76-1.388,4.14C820.516,333.086,828.351,335.776,836.185,338.466z" fill="#C30D23"></path>
	<path style="" d="M948.312,1095.36c-3.662,0.805-6.936,1.342-10.094,2.272c-3.089,0.91-6.059,2.22-9.081,3.354
		c0.363,0.766,0.727,1.531,1.09,2.297c7.083,0,14.166,0,22.235,0C950.617,1099.76,949.325,1097.293,948.312,1095.36z" fill="#C30D23"></path>
	<path style="" d="M1054.656,902.799c-6.835-3.796-11.797-6.551-17.586-9.766
		C1036.901,906.894,1039.176,908.242,1054.656,902.799z" fill="#C30D23"></path>
	<path style="" d="M1051.529,1000.671c8.586-2.085,13.983-3.396,20.988-5.098c-2.513-3.557-4.661-6.598-7.203-10.196
		C1060.807,990.376,1056.992,994.609,1051.529,1000.671z" fill="#C30D23"></path>
	<path style="" d="M761.934,269.783c5.304,2.718,10.915,8.232,15.863,7.69c27.672-3.029,54.894-1.573,81.562,6
		c11.735,3.332,22.834,8.907,34.383,13.528c0,0.002,0.603-2.798,0.867-4.024c38.827,7.986,68.276,34.234,102.12,52.574
		c0.969-2.241,1.882-4.354,2.745-6.351c6.696,4.055,14.404,6.591,18.933,11.861c13.977,16.264,27.642,32.952,39.769,50.615
		c18.869,27.483,25.249,61.366,43.027,89.223c9.388,14.712,8.684,32.611,19.119,46.309c0.877,1.152-0.064,3.646-0.062,5.517
		c0.002,2.84-1.095,6.817,0.348,8.323c6.095,6.359,6.538,15.18,10.704,22.296c0.685,1.17,0.642,3.535-0.106,4.649
		c-4.398,6.552-4.156,5.944,2.11,9.972c3.357,2.158,6.091,6.212,7.648,10.008c1.956,4.77,2.419,10.153,3.863,16.826
		c-7.022,3.095-5.838,10.692-3.207,18.586c6.254,18.76,1.551,37.652,1.236,56.555c-0.286,17.225,2.061,34.484,2.971,51.743
		c0.321,6.084-1.131,12.393-0.011,18.263c0.98,5.136,4.433,9.799,6.793,14.671c0,2.537,0,5.074,0,7.611
		c-5.104,11.326-13.914,21.887-6.26,35.677c1.02,1.838-0.697,5.466-1.645,8.084c-6.605,18.227-15.396,35.966-19.423,54.732
		c-3.599,16.772-9.438,27.841-24.833,37.658c-12.389,7.899-18.111,25.564-28.695,37.157c-14.297,15.659-30.349,29.727-45.906,44.201
		c-1.094,1.018-4.313-0.247-6.544-0.451c0.344-3.147-0.235-6.836,1.227-9.327c2.926-4.986,7.081-9.235,10.528-13.935
		c6.024-8.212,11.721-16.668,17.877-24.778c7.545-9.941,19.057-18.589,22.238-29.691c4.015-14.017,14.479-20.709,22.123-30.677
		c3.385-4.414,3.48-11.338,5.124-17.107c1.147-4.027,1.669-8.453,3.74-11.949c4.198-7.087,9.256-13.663,13.764-20.167
		c-2.781-1.546-5.843-3.249-10.86-6.039c4.883-2.835,7.875-4.573,10.74-6.237c-0.98-2.011-3.488-4.698-2.96-6.487
		c2.787-9.433,5.054-19.388,9.925-27.751c7.49-12.861-3.381-24.369-0.656-36.788c1.61-7.339,0.154-15.311,0.473-22.982
		c0.656-15.759,2.539-31.546,1.904-47.24c-0.245-6.055-5.96-11.888-9.317-18.069c15.49-7.616,1.84-17.838,2.345-26.902
		c0.229-4.102,0.244-8.216,0.39-12.323c0.079-2.224,0.682-4.533,0.271-6.653c-2.744-14.174-5.521-28.346-8.705-42.425
		c-0.804-3.556-3.574-6.629-4.673-10.163c-3.626-11.667-8.04-23.25-10.066-35.218c-3.812-22.521-12.755-42.339-26.03-60.775
		c-6.048-8.399-9.497-18.626-15.024-27.462c-2.93-4.685-9.686-7.48-11.427-12.313c-6.269-17.399-21.77-27.356-31.437-41.542
		c-14.608-21.438-36.262-34.427-56.72-46.059c-21.23-12.072-43.267-25.814-69.722-28.545c-19.359-1.998-38.088-9.594-57.317-13.654
		c-6.051-1.277-14.998,3.725-18.843,0.832c-11.697-8.799-25.755,0.664-36.905-6.844c-0.295-0.198-1.072-0.221-1.216-0.025
		c-8.446,11.479-21.141,2.278-31.165,6.339c-2.516,1.019-5.806,1.065-8.515,0.493c-7.48-1.579-13.37-2.933-21.43,2.49
		c-6.836,4.6-18.34,2.144-27.75,3.09c-4.347,0.437-8.628,1.538-12.743,3.514c-9.575-2.637-18.473-7.138-27.288,5.121
		c-2.832,3.938-13.178,2.536-20.103,3.453c-9.604,1.273-19.223,2.429-29.147,3.675c-3.714,1.23-7.729,3.092-11.942,3.844
		c-8.933,1.594-18.259,1.659-26.835,4.279c-4.04,1.235-6.641,6.998-10.032,10.577c-8.093,8.54-10.965,1.306-13.656-2.824
		c5.561-9.255,10.397-17.304,16.143-26.867c2.361,1.166,6.047,3.908,10.13,4.767c4.8,1.009,12.284,2.483,14.469,0.046
		c5.061-5.643-1.697-5.724-5.424-8.157c-4.014-2.621-5.937-8.443-10.466-15.512c6.429,0.311,10.324,0.016,13.995,0.784
		c6.249,1.308,11.746,3.983,18.66-0.265c2.311-1.42,9.379,4.172,13.808,7.231c2.27,1.567,3.516,4.616,5.225,6.995
		c1.606-1.592,4.827-3.742,4.507-4.667c-0.86-2.488-3.268-4.425-4.99-6.636c-0.741-0.951-1.306-2.039-3.521-5.56
		c9.119-1.593,16.982-2.967,24.844-4.341c0.301,1.448,0.601,2.896,0.902,4.345c-1.725,0.635-3.45,1.269-5.783,2.128
		c2.577,2.388,4.969,4.605,5.702,5.284c8.338-3.766,15.823-7.146,22.919-10.351c-1.13-1.235-3.2-3.497-5.271-5.759
		c0.348-0.773,0.696-1.546,1.045-2.319c7.385,1.561,14.77,3.122,23.581,4.984c-1.399-2.419-2.388-4.128-4.033-6.971
		c8.945-0.848,17.385-1.649,25.825-2.45c2.653-2.959,4.567-7.352,13.731-3.829c6.637,2.551,15.179-0.166,22.849,0.098
		c7.38,0.254,14.731,1.321,23.253,2.142c1.346-1.617,4.576-5.498,7.806-9.379C760.243,269.783,761.088,269.783,761.934,269.783z" fill="#C30D23"></path>
	<path style="" d="M264.71,764.471c7.884-5.46,15.285-5.513,23.88,5.351c-0.623-12.117-1.06-20.63-1.497-29.143
		c-1.178,0.001-2.356,0.003-3.534,0.005c-0.934,2.832-1.868,5.664-2.802,8.496c-1.279,0.26-2.558,0.519-3.837,0.779
		c-1.612-4.7-4.298-9.328-4.616-14.114c-0.705-10.588-0.219-21.255-0.219-34.109c3.436,0.969,9.241,2.607,16.332,4.608
		c-13.122-17.155-23-35.65-6.138-57.259c-1.69-2.017-4.009-4.785-6.328-7.554c1.316,0.033,2.633,0.065,3.949,0.098
		c1.827-16.237,3.654-32.473,5.671-50.402c3.689,2.605,7.211,5.091,14.599,10.307c-8.088-12.993-15.398-23.994,2.283-28.974
		c-0.748-3.929-1.494-7.85-2.488-13.069c3.987,0.328,6.621,0.544,9.8,0.805c1.898-10.338,3.871-21.091,6.336-34.518
		c5.313-3.804,19.578-7.262,6.485-21.466c2.778-4.529,14.394-4.626,7.804-13.899c1.52,2.598,3.04,5.196,5.178,8.851
		c6.946-8.588,17.117-15.119,6.571-27.731c10.43,2.129,16.935-8.369,16.456-26.072c3.217,0.963,6.049,1.811,7.764,2.324
		c12.974-11.655,25.424-22.838,39.522-35.502c4.278,13.078,7.441,20.033-4.276,28.156c-11.982,8.307-22.815,20.527-29.669,33.418
		c-9.151,17.21-18.912,34.303-26.351,52.496c-4.395,10.747-10.274,20.879-15.21,31.417c-2.061,4.401-5.281,9.362-4.765,13.686
		c2.929,24.577-9.062,44.765-18.022,65.895c-0.805,1.899-2.756,4.169-2.267,5.628c5.841,17.436,0.265,34.907,0.359,52.33
		c0.019,3.619-1.962,7.25-3.978,14.152c9.415,17.364,6.728,39.006,1.815,61.142c-1.199,5.401,3.06,11.824,3.89,17.903
		c2.136,15.65-0.403,33.65,6.632,46.489c8.881,16.208,2.73,36.108,16.274,50.198c2.844,2.958,2.325,9.302,3.03,14.133
		c1.653,11.328,7.409,20.139,14.441,29.127c10.85,13.866,18.908,29.907,29.678,43.846c7.393,9.568,17.585,16.93,26.147,25.651
		c9.541,9.718,18.558,19.948,27.993,29.774c4.834,5.034,9.967,9.799,15.185,14.439c2.764,2.458,6.542,3.919,8.9,6.658
		c4.158,4.83,0.717,10.76-3.446,8.918c-7.513-3.323-18.094,1.663-23.2-9.978c-2.802-6.388-11.754-9.811-16.982-15.451
		c-17.034-18.375-32.053-38.59-53.35-52.886c-6.213-4.171-10.686-11.808-14.363-18.707c-8.539-16.023-13.343-34.994-24.914-48.148
		c-9.797-11.138-1.716-27.536-15.817-35.801c-5.523-3.238-8.744-10.687-12.535-16.529c-6.099-9.399-5.369-10.96,5.24-15.475
		c0-3.157-0.052-5.957,0.012-8.754c0.093-4.048,2.068-10.486-5.718-4.208c-0.217,0.175-4.557-3.793-5.987-6.376
		c-1.314-2.375-1.118-5.537-1.89-8.268c-4.629-16.389-9.645-32.641-18.027-47.612C264.71,767.853,264.71,766.162,264.71,764.471z" fill="#C30D23"></path>
	<path style="" d="M751.787,1147.537c-1.203-1.614-2.31-4.541-3.625-4.638c-11.823-0.869-23.686-1.168-35.528-1.817
		c-2.633-0.144-5.388-0.616-7.809-1.614c-8.348-3.439-16.317-6.945-24.797,0.409c-1.495,1.297-6.162-1.009-9.346-1.728
		c-5.689-1.286-11.305-3.083-17.06-3.859c-12.434-1.675-24.994-4.302-37.396-3.82c-13.879,0.54-24.639-6.109-36.26-11.195
		c-2.943-1.288-5.49-3.479-8.219-5.255c0.367-1.1,0.734-2.199,1.101-3.299c23.748,2.942,47.484,5.977,71.248,8.787
		c12.986,1.536,25.998,3.132,39.042,3.712c3.38,0.15,6.925-3.425,10.104-5.134c12.699,12.306,33.566-7.841,42.021,8.749
		c9.728-1.523,17.528-2.823,25.354-3.946c6.886-0.988,13.796-1.816,20.704-2.643c3.848-0.46,7.844-0.284,11.543-1.261
		c6.218-1.644,12.286-3.889,18.346-6.077c1.861-0.672,3.753-3.137,5.186-2.814c9.639,2.177,14.854-6.042,22.29-8.873
		c10.955-4.171,21.878-8.769,33.22-11.503c17.643-4.253,35.669-5.546,50.121-19.623c5.279-5.142,16.472-4.214,25.765-6.228
		c-9.938,10.606-19.145,20.58-28.519,30.395c-10.511,11.006-22.305,15.758-38.249,11.789c-4.974-1.238-11.948,6.014-18.16,9.066
		c-2.455,1.206-5.367,1.446-8.004,2.325c-3.444,1.149-6.856,2.413-10.215,3.791c-1.823,0.748-3.902,3.018-5.191,2.586
		c-12.664-4.241-13.218,5.932-16.963,15.077c-2.888-2.586-4.993-5.416-7.805-6.718c-2.701-1.251-8.475-2.013-8.893-1.118
		c-5.53,11.834-12.854,13.958-22.978,5.471c-6.287,6.903-20.379-2.806-23.421,11.004
		C756.86,1147.537,754.323,1147.537,751.787,1147.537z" fill="#C30D23"></path>
	<path style="" d="M684.683,1088.13c0-9.62,0-18.682,0-27.832c3.472-1.543,7.178-3.189,9.7-4.31
		c-0.009-11.645-14.671-21.114-1.782-32.991c0.545-0.502,1.037-2.073,0.862-2.201c-13.993-10.254,7.015-24.448-4.108-35.927
		c-2.784-2.874-0.377-11.299,0.476-17.05c1.179-7.955,4.277-15.783,4.349-23.685c0.042-4.703-4.144-9.444-6.718-14.764
		c10.367-12.975-0.019-29.588,5.369-45.454c5.32-15.662,1.162-34.544,1.162-52.566c10.295-0.961,15.101,0.389,12.977,12.904
		c-1.715,10.104,1.234,21.006,2.175,31.548c0.134,1.502,1.001,3.009,0.865,4.452c-0.539,5.732-1.341,11.44-2.144,17.957
		c0,5.645-0.179,11.502,0.034,17.346c0.593,16.216,0.671,32.492,2.224,48.622c1.702,17.682-3.599,34.667-1.582,53.061
		c1.889,17.228-0.785,35.53,4.984,52.807c2.353,7.046,6.353,13.542,8.784,18.586c-5.398,6.105-9.888,11.183-15.913,17.997
		c-10.19,1.171-10.03-6.737-7.363-16.632C693.608,1089.291,688.82,1088.668,684.683,1088.13z" fill="#C30D23"></path>
	<path style="" d="M718.111,731.272c-3.05,0.848-6.162,1.52-9.138,2.575c-14.31,5.072-36.47-6.835-36.457-20.984
		c0.012-12.856-1.415-26.468,16.547-32.777c13.382-4.7,31.245-6.088,41.816,3.442c7.67,6.915,14.499,33.281,8.546,39.994
		c-4.763,5.371-12.993,7.669-19.684,11.331C719.197,733.659,718.654,732.466,718.111,731.272z" fill="#C30D23"></path>
	<path style="" d="M870.699,1023.909c2.719-4.574,4.077-6.859,5.364-9.024c9.779,1.909,19.417,11.531,28.549-1.877
		c8.403,8.324,16.147,5.889,21.126-2.844c7.489-13.136,19.883-1.254,28.728-6.725c3.266-2.021,7.362-2.7,11.08-3.992
		c-0.148-1.553-0.296-3.106-0.444-4.658c-19.273-4.473-38.545-8.946-57.818-13.419c0.186-1.175,0.373-2.349,0.559-3.524
		c1.807-0.726,3.881-2.429,5.376-2.019c9.514,2.608,18.868,5.794,28.351,8.523c2.288,0.659,6.208,1.385,7.098,0.267
		c8.126-10.216,11.51-2.761,16.779,3.159c1.972,2.216,1.906,12.133,9.852,5.839c0.251-0.199,3.537,2.258,4.015,3.886
		c0.392,1.335-0.873,4.263-2.123,4.796c-8.585,3.657-17.359,6.868-26.436,10.363c1.686,2.063,3.994,4.886,8.858,10.838
		c-13.155,1.099-26.742-2.096-27.829,13.077c-7.546-1.375-14.399-2.624-21.252-3.873c-0.157,0.546-0.315,1.093-0.472,1.639
		c2.776,1.609,5.552,3.218,8.328,4.827c-0.044,0.933-0.087,1.866-0.131,2.798c-5.191,0.528-10.381,1.056-16.679,1.696
		c0.776-4.425,1.241-7.077,1.62-9.233c-7.35,0.69-14.447,2.173-21.443,1.795c-7.919-0.427-19.636,6.732-19.443-11.676" fill="#C30D23"></path>
	<path style="" d="M707.456,482.864c-13.799,12.088-4.027,24.53-4.968,35.967c-0.21,2.554,1.214,5.248,0.977,7.794
		c-1.811,19.498-1.076,38.536,5.436,57.426c2.018,5.854-1.011,13.31-0.946,20.026c0.038,3.948,2.792,8.048,2.261,11.785
		c-1.123,7.898-3.601,15.603-7.353,23.612c-6.298-6.572-15.7-9.861-10.715-22.693c2.808-7.228,1.304-16.742-0.137-24.893
		c-3.779-21.375-9.472-42.202-6.003-64.562c2.224-14.336,0.145-29.307,0.516-43.98c0.121-4.801,1.051-9.946,3.05-14.268
		c5.986-12.942-1.132-25.423-0.331-38.069c0.131-2.075,3.37-3.952,6.533-7.408c1.133,4.616,2.392,7.289,2.33,9.932
		c-0.241,10.213-1.928,20.524,4.264,29.871c0.621,0.938,0.137,3.483-0.748,4.404C694.473,475.241,697.068,479.963,707.456,482.864z" fill="#C30D23"></path>
	<path style="" d="M970.901,707.068c4.07-8.327,8.903-6.924,16.908-5.175c11.635,2.542,24.791,2.542,36.182-4.805
		c2.849-1.837,6.935-3.102,10.206-2.687c9.822,1.246,19.477,4.583,29.283,4.976c10.593,0.424,21.279-1.593,31.93-2.471
		c10.16-0.837,23.702,12.124,22.278,20.808c-11.758-2.21-23.45-4.933-35.297-6.378c-4.818-0.588-9.947,1.814-14.984,2.484
		c-10.812,1.438-21.343-2.679-32.83,1.41c-10.677,3.801-23.233,2.676-34.981,2.969c-5.713,0.142-11.542-2.387-17.184-1.956
		c-5.696,0.435-14.127-4.25-16.233,6.187c-3.582-0.915-7.718-0.999-10.621-2.934c-4.675-3.116-8.75-7.251-12.641-11.37
		c-1.607-1.701-2.081-4.471-2.601-5.673c6.923-0.638,12.077-1.112,19.642-1.809C961.667,701.645,965.931,704.149,970.901,707.068z" fill="#C30D23"></path>
	<path style="" d="M1032.141,493.107c7.046,3.611,12.308,7.485,11.608,17.689c-0.371,5.401,4.553,11.171,7.108,16.765
		c1.663,3.641,3.422,7.24,5.034,10.903c2.692,6.116,5.649,12.146,7.866,18.433c3.572,10.13,7.069,20.326,9.777,30.708
		c2.28,8.743,4.312,17.739,4.81,26.715c0.791,14.237,0.211,28.549,0.211,42.83c-1.03,0.471-2.06,0.942-3.089,1.414
		c-2.126-2.7-5.466-5.116-6.175-8.147c-3.771-16.128-6.006-32.655-10.448-48.576c-5.43-19.461-8.43-39.699-18.114-57.959
		c-2.445-4.61-1.69-10.887-2.553-16.375c-0.823-5.232-1.191-10.664-2.942-15.587c-2.025-5.693-5.342-10.927-8.098-16.36
		C1028.805,494.742,1030.473,493.924,1032.141,493.107z" fill="#C30D23"></path>
	<path style="" d="M903.672,348.162c11.211,5.861,22.7,11.252,33.566,17.696c14.985,8.886,27.495,20.373,38.26,34.482
		c9.081,11.903,21.349,21.345,31.889,32.185c2.383,2.451,4.72,6.102,4.914,9.331c0.94,15.677,8.28,26.845,22.651,33.731
		c-1.546,4.231-2.885,7.898-4.901,13.416c-6.714-5.717-12.259-10.439-15.217-12.958c-2.736-7.574-6.08-12.406-5.9-17.103
		c0.774-20.187-17.759-27.913-26.681-41.618c-8.075-12.404-20.376-22.612-32.352-31.777c-14.495-11.093-30.646-20.014-45.948-30.077
		c-1.243-0.817-1.464-3.187-2.161-4.836C902.419,349.81,903.046,348.986,903.672,348.162z" fill="#C30D23"></path>
	<path style="" d="M406.981,701.899c8.315,0,16.396-2.459,20.825,0.517c8.952,6.016,17.897,4.648,26.882,3.833
		c18.351-1.663,36.934,2.395,55.293-3.806c5.061-1.71,12.597,3.91,18.444,7.935c-16.647,7.446-32.792,7.342-49.271,3.769
		c-4.894-1.061-10.208-0.496-15.307-0.233c-10.018,0.518-20.019,1.831-30.03,1.869c-6.097,0.023-12.255-2.748-18.288-2.427
		c-8.678,0.461-17.234,2.903-25.911,3.87c-3.803,0.424-8.255,0.211-11.501-1.471c-1.974-1.023-2.208-5.402-3.224-8.273
		c2.907-0.366,6.798-2.123,8.561-0.874C395.22,714.939,402.322,708.867,406.981,701.899z" fill="#C30D23"></path>
	<path style="" d="M396.816,954.882c6.603,6.223,13.206,12.446,22.028,20.761c0.995-8.988,1.674-15.118,2.75-24.836
		c5.943,4.48,15.001,7.995,15.334,12.201c0.875,11.065-2.044,22.43-3.386,33.144c11.895,14.202,24.566,29.33,37.811,45.143
		c-2.162,1.209-4.413,2.877-4.714,2.579c-26.837-26.624-52.526-54.212-72.78-86.222C394.844,956.728,395.83,955.805,396.816,954.882
		z" fill="#C30D23"></path>
	<path style="" d="M950.403,1084.684c11.508-12.665,21.282-25.235,36.001-31.031c0.976,1.051,1.952,2.102,2.927,3.153
		c-1.546,2.451-3.091,4.901-5.587,8.859c13.551-2.724,24.537-5.015,33.134-15.703c7.435-9.244,17.82-16.115,29.331-26.154
		c-5.195,11.652,1.406,29.228-19.238,22.98c-5.202,8.102-8.781,19.196-16.361,24.078c-9.416,6.065-22.051,7.467-33.529,9.657
		c-1.826,0.348-4.879-5.733-9.516-11.532c0.403,7.103,0.667,11.747,0.95,16.731C962.497,1090.812,958.536,1071.355,950.403,1084.684
		z" fill="#C30D23"></path>
	<path style="" d="M936.47,710.215c-11.139,1.36-20.283,4.931-27.915,2.881c-14.535-3.905-28.753-2.479-43.169-2.187
		c-2.974,0.06-6.47-0.715-8.823,0.56c-7.782,4.217-13.352,2.309-18.2-4.987c5.079-5.67,9.836-8.009,17.794-4.251
		c4.398,2.077,10.793-0.348,16.278-0.237c9.076,0.185,18.142,0.871,27.217,1.163c4.68,0.15,10.191,1.469,13.896-0.471
		C922.544,697.975,928.162,701.909,936.47,710.215z" fill="#C30D23"></path>
	<path style="" d="M660.132,1085.949c-1.345,10.905-8.426,8.661-14.757,6.649c-16.064-5.106-31.466-3.308-47.59,1.029
		c-7.501,2.017-16.659-2.131-25.066-3.484c1.178-2.74,1.751-7.252,3.644-7.898c6.517-2.224,12.599-5.227,20.613-1.094
		c6.545,3.375,14.453,3.433,23.286-0.676c7.453-3.468,18.57,0.631,28.001,1.869C652.198,1082.859,655.968,1084.642,660.132,1085.949
		z" fill="#C30D23"></path>
	<path style="" d="M1074.678,759.355c6.583,3.668,14.666,5.566,15.569,9.233c1.724,7.002,17.141,10.413,5.442,22.045
		c-3.466,3.446,1.077,14.321,0.693,21.726c-0.234,4.52-2.46,9.156-4.822,13.128c-0.39,0.656-6.378-1.36-9.216-3.073
		c-1.58-0.954-3.373-4.752-2.735-5.706c12.361-18.484,1.441-34.072-5.784-50.157
		C1073.541,765.916,1073.978,764.959,1074.678,759.355z" fill="#C30D23"></path>
	<path style="" d="M625.159,721.758c-10.84-3.486-19.441-6.253-25.562-8.221c-8.539,0-14.94-0.18-21.326,0.041
		c-9.973,0.345-19.944,1.374-29.902,1.222c-3.112-0.048-6.18-2.969-9.269-4.576c2.431-1.691,4.913-4.905,7.284-4.825
		c15.036,0.508,30.252-6.972,45.395,2.694c3.933,2.511,12.425-3.143,18.814-3.115c4.674,0.021,10.029,2.349,13.709,5.338
		C626.149,711.817,624.935,717.085,625.159,721.758z" fill="#C30D23"></path>
	<path style="" d="M441.05,387.646c-2.764-6.417-4.809-11.165-7.397-17.174c5.363-2.771,13.376-6.91,24.493-12.654
		c5.256,0.653,14.535,1.806,23.815,2.958c-0.232,2.473-0.465,4.946-0.697,7.418c-3.783-0.478-7.566-1.329-11.348-1.323
		c-3.359,0.005-7.696-0.178-9.891,1.71C453.35,374.324,447.502,381.028,441.05,387.646z" fill="#C30D23"></path>
	<path style="" d="M514.74,1066.446c14.867,3.568,29.806,6.882,44.513,11.02c1.866,0.525,2.52,5.36,3.735,8.199
		c-3.362,0.898-6.98,3.069-10.037,2.453c-8.893-1.79-17.901-3.901-26.193-7.452c-5.217-2.234-9.231-7.28-13.784-11.065
		C513.562,1068.549,514.151,1067.498,514.74,1066.446z" fill="#C30D23"></path>
	<path style="" d="M374.548,919.861c-16.759-17.759-22.722-41.984-34.579-62.678c1.102-0.772,2.204-1.543,3.306-2.315
		c2.472,3.842,5.169,7.561,7.375,11.55c6.459,11.681,12.588,23.546,19.124,35.183c2.911,5.184,6.488,9.993,9.762,14.973
		C377.874,917.67,376.211,918.766,374.548,919.861z" fill="#C30D23"></path>
	<path style="" d="M801.53,1088.746c-2.935,0-6.203,0.798-8.705-0.243c-2.143-0.891-4.797-3.974-4.676-5.931
		c0.122-1.979,4.401-5.717,5.105-5.347c14.111,7.416,26.66-2.99,39.988-3.065c3.058-0.017,6.122,1.051,9.183,1.619
		c-2.691,1.845-5.15,4.549-8.122,5.35c-5.507,1.484-11.461,1.323-16.953,2.845c-5.138,1.423-9.918,4.138-14.855,6.285
		C802.173,1089.756,801.851,1089.251,801.53,1088.746z" fill="#C30D23"></path>
	<path style="" d="M583.549,347.585c7.364,11.234,15.165,4.989,22.892,4.168c10.079-1.071,20.358-0.262,30.551-0.262
		c0.027,1.546,0.053,3.092,0.08,4.638c-2.431,0.712-4.826,1.862-7.298,2.061c-12.474,1.006-24.957,2.089-37.458,2.483
		C585.125,360.9,580.241,358.019,583.549,347.585z" fill="#C30D23"></path>
	<path style="" d="M687.078,398.18c3.663-3.108,6.769-5.743,9.314-7.902c2.596,9.547,5.285,19.436,8.65,31.812
		c-3.379,3.814-15.145,0.048-17.103-10.093C686.988,407.072,687.278,401.907,687.078,398.18z" fill="#C30D23"></path>
	<path style="" d="M1068.292,827.816c7.465,0.712,13.352-0.301,16.679,2.154c2.153,1.588,1.068,8.315,0.513,12.621
		c-0.61,4.733,5.792,14.185-5.911,12.069c-2.559-0.463-3.424-9.608-5.325-14.658
		C1073.165,837.122,1071.562,834.438,1068.292,827.816z" fill="#C30D23"></path>
	<path style="" d="M1059.131,877.002c-0.289-4.457-0.577-8.913-0.942-14.544c3.51-1.342,7.407-2.832,12.266-4.691
		c-7.195,32.491-7.195,32.491-17.939,32.299C1050.176,877.512,1050.176,877.512,1059.131,877.002z" fill="#C30D23"></path>
	<path style="" d="M992.491,957.272c5.069,3.396,10.137,6.792,14.825,9.932c-3.355,12.498-11.362,17.191-22.121,17.389
		c-2.313,0.043-4.683-2.942-9.293-6.069c6.331,0,9.564,0,15.245,0c0.546-6.665,1.16-14.168,1.774-21.676
		C992.921,956.844,992.491,957.272,992.491,957.272z" fill="#C30D23"></path>
	<path style="" d="M515.719,1091.777c14.015,6.106,29.78,12.975,47.993,20.911
		C530.677,1109.888,520.504,1105.349,515.719,1091.777z" fill="#C30D23"></path>
	<path style="" d="M742.989,1080.078c8.319,1.587,16.705,2.915,24.883,5.041c1.22,0.317,1.467,4.381,2.164,6.711
		c-1.965-0.175-3.955-0.21-5.889-0.555c-3.958-0.708-7.915-1.468-11.819-2.422c-3.571-0.872-7.073-2.028-10.606-3.059
		C742.144,1083.888,742.566,1081.983,742.989,1080.078z" fill="#C30D23"></path>
	<path style="" d="M846.147,330.57c10.111,3.646,20.223,7.293,30.334,10.939c-0.568,1.69-1.136,3.379-1.705,5.069
		c-10.201-3.701-20.401-7.401-30.602-11.102C844.832,333.841,845.489,332.206,846.147,330.57z" fill="#C30D23"></path>
	<path style="" d="M859.077,1055.471c4.131,4.887,6.694,7.92,8.819,10.435c-6.075,3.38-11.38,6.332-17.273,9.61
		C841.281,1064.547,856.364,1063.525,859.077,1055.471z" fill="#C30D23"></path>
	<path style="" d="M691.849,380.626c-0.514-4.761-1.027-9.523-1.894-17.558c5.322,2.196,9.18,3.787,13.037,5.379
		c-2.728,4.584-5.456,9.168-8.185,13.752C693.822,381.674,692.835,381.15,691.849,380.626z" fill="#C30D23"></path>
	<path style="" d="M740.544,341.875c-9.329-1.637-17.729-3.112-26.129-4.586
		C736.751,332.597,737.587,332.804,740.544,341.875z" fill="#C30D23"></path>
	<path style="" d="M836.185,338.466c-7.834-2.69-15.669-5.381-23.503-8.071c0.463-1.38,0.925-2.76,1.388-4.14
		c8.024,2.267,16.049,4.533,24.073,6.8C837.49,334.859,836.838,336.663,836.185,338.466z" fill="#C30D23"></path>
	<path style="" d="M948.312,1095.36c1.012,1.933,2.305,4.401,4.15,7.924c-8.069,0-15.152,0-22.235,0
		c-0.363-0.766-0.727-1.531-1.09-2.297c3.022-1.135,5.993-2.445,9.081-3.354C941.376,1096.702,944.65,1096.165,948.312,1095.36z" fill="#C30D23"></path>
	<path style="" d="M1054.656,902.799c-15.481,5.443-17.755,4.095-17.586-9.766
		C1042.86,896.247,1047.821,899.003,1054.656,902.799z" fill="#C30D23"></path>
	<path style="" d="M1051.529,1000.671c5.463-6.061,9.278-10.294,13.784-15.294c2.542,3.598,4.69,6.639,7.203,10.196
		C1065.511,997.274,1060.114,998.585,1051.529,1000.671z" fill="#C30D23"></path>
</g>
</svg></g> <!----></g><g id="shape_Iws5Zwmxiw" transform="translate(45.619863467656415,225.87058421674675) rotate(0,36.5,5.567544324556755) scale(0.848356309650053,0.848356309650053)" filter="" style="cursor: move; opacity: 1;"><g><rect fill="rgba(0,0,0,0)" width="93" height="31.13508864911351" x="-10" y="-10"></rect><svg version="1.1" id="图层_1" x="0px" y="0px" width="73" height="11.13508864911351" viewBox="0.001 93.038 200.002 13.919" enable-background="new 0.001 93.038 200.002 13.919" xml:space="preserve" xmlns="http://www.w3.org/2000/svg" xmlns:xlink="http://www.w3.org/1999/xlink" xmlns:xml="http://www.w3.org/XML/1998/namespace" preserveAspectRatio="none" data-parent="shape_Iws5Zwmxiw">
  <g>
    <path fill="#404040" d="M113.784,104.4c-0.462,0.063-0.933,0.117-0.984,0.591C113.063,105.08,113.83,104.939,113.784,104.4z" class=""></path>
    <path fill="#404040" d="M122.839,104.303c0.231,0.453,1.201,0.03,1.673,0C124.313,103.623,122.586,103.814,122.839,104.303z" class=""></path>
    <path fill="#404040" d="M19.204,93.082c-0.706-0.026-1.01,0.361-1.28,0.494c-0.474,0.23-0.332-0.146-0.885-0.198
		c-0.082-0.007-0.286,0.212-0.492,0.198c-0.213-0.018-0.229-0.213-0.394-0.198c-0.211,0.019-0.404,0.261-0.688,0.296
		c-0.313,0.037-0.562-0.184-0.887-0.197c-0.14-0.006-0.334,0.188-0.491,0.197c-0.561,0.035-1.672-0.047-2.461-0.098
		c-0.443-0.031-1.13-0.064-1.278-0.1c-0.798-0.188-0.692-0.566-1.183-0.395c0.034-0.012-0.255,0.547-0.195,0.494
		c-0.079,0.069-1.812,0.689-1.773,0.688c-0.194,0.008-0.644-0.366-0.786-0.394c-1.192-0.233-1.093,0.476-1.969,0.196
		c-0.023,0.287,0.015,0.946,0.196,1.182c0.275,0.355,1.112,0.285,1.083,0.689c-0.074,1.043-2.041-0.365-2.46,0.393
		c-0.053,0.349,0.347,0.243,0.294,0.592c-0.697,0.107-0.8-0.381-1.377-0.395c-0.424,0.334-0.016,1.341-0.099,1.576
		c-0.231-0.033-0.37-0.156-0.688-0.1c-0.21,0.375,0.006,0.646,0.098,0.984c-0.183-0.023-0.651-0.254-0.787,0
		c0.41,0.661,1.212,0.537,1.477,1.182c-0.569,0.021-1.025-0.738-1.574-0.395c-0.582,0.365,0.177,1.734,0.589,1.28
		c0.007,0.125,0.127,0.137,0.099,0.295c-0.638,0.146-0.543-0.44-1.181-0.295c-0.06,0.234-0.142,0.449-0.098,0.786
		c0.128,0.191,0.521-0.196,0.591,0.196c-0.41,0.166,0.12,1.298,0.394,1.479c0.102,0.065,0.406-0.084,0.491,0
		c0.159,0.152,0.146,0.526,0.295,0.688c0.151,0.162,0.341-0.004,0.494,0.099c0.311,0.208,0.391,0.834,0.786,0.591
		c0.023-0.385-0.212-0.51-0.296-0.787c0.416-0.326,0.628,0.056,0.887,0.099c0.251,0.042,0.464-0.153,0.59-0.099
		c0.156,0.069,0.172,0.397,0.297,0.492c0.841,0.639,1.275,0.086,1.967-0.099c-0.783,1.183,1.246,0.808,2.166,0.885
		c2.402,0.203,6.931,0.867,8.168-0.394c0,0.099,0.081,0.117,0.099,0.197c-0.041,0.318-0.438,0.282-0.394,0.688
		c0.904-0.347,1.295,0.388,1.673,0.394c0.865,0.016,1.476-1.021,2.265-0.887c0.195,0.035-0.039,0.406,0.098,0.493
		c0.683,0.433,1.673-0.169,2.066-0.789c0.427,0.336-0.171,0.375-0.197,0.789c1.001-0.229,1.663,1.019,2.264-0.099
		c0.219,0.076-0.02,0.608,0.394,0.49c0.025-0.658,0.425-0.166,0.591-0.195c0.058-0.01,0.215-0.278,0.295-0.295
		c0.274-0.062,1.136-0.008,1.28,0.099c0.007,0.004,0.04,0.519,0.196,0.59c0.666,0.313,1.579-0.063,2.264,0.197
		c0.2-0.368-0.126-0.709,0-0.886c0.555,0.027,1.356,0.324,0.789,0.983c1.398,0.036,2.089-1.218,3.346-0.493
		c-0.168,0.098-0.253,0.272-0.197,0.592c0.464,0.006,0.54-0.379,0.885-0.492c0.174,0.208,0.223,0.292,0.1,0.592
		c0.845-0.302,0.669-0.536,1.476-0.689c0.119,0.153,0.314,0.383,0.098,0.592c0.65-0.411,1.226-0.616,1.772,0
		c0.157-1.541,2.43,0.858,2.46-0.493c0.003-0.134-0.342-0.101-0.196-0.394c0.664,0.609,1.334-0.39,1.771,0.394
		c0.06,0.108-0.44,0.392,0.099,0.493c-0.014-0.396,1.088-0.863,1.377-0.788c0.217,0.056,0.287,0.428,0.492,0.491
		c-0.028-0.008,0.04-0.24,0.197-0.196c0.46,0.129,1.18,0.606,1.771,0c-0.026,0.225,0.024,0.37,0.197,0.396
		c0.429-0.523,0.605-1.298,1.082-1.772c-0.032,0.229,0.017,0.379,0.099,0.491c0.288,0.082,0.32-0.586,0.492-0.295
		c0.083,0.902-0.74,0.901-1.082,1.379c0.54-0.187,1.571,0.256,1.969-0.197c0.869,0.857,3.057-1.791,3.148,0.492
		c0.204-0.155-0.06-0.78,0.394-0.688c0.231,0.031,0.06,0.466,0.394,0.394c0.142-0.151,0.131-0.459,0.295-0.59
		c0.244,0.233,0.178,0.402,0.394,0.491c0.379,0.019,0.446-0.276,0.591-0.491c0.368-0.105,0.28,0.244,0.591,0.196
		c0.428-0.869,1.32,0.653,1.969,0.492c0.314-0.08,0.188-0.552,0.688-0.787c-0.162,1.567,0.732,0.528,0.789,0.082
		c0.046,0.798,1.234,0.565,1.574-0.082c0.144,0.513,2.626-0.878,2.362,0.688c0.631-0.614,0.683-0.287,1.277-0.592
		c0.112,0.31-0.097,0.543,0.297,0.689c0.671-0.773,0.904-1.331,1.969-0.887c-0.029,0.201-0.267,0.192-0.296,0.395
		c0.857,0.069,1.549-1.281,1.772-0.1c0.159-0.153,0.764-1.039,0.884-0.295c0.443,0.113,0.106-0.549,0.592-0.395
		c-0.063,0.227-0.196,0.594,0,0.788c0.191-0.237,0.893-0.067,0.984-0.099c0.179-0.063,0.308-0.412,0.491-0.394
		c0.031,0.003,0.172,0.479,0.197,0.491c0.678,0.325,1.246-1.029,1.082-0.984c0.951-0.264,0.556,0.412,0.492,0.887
		c0.438,0.256,0.639-0.506,0.59-0.787c0.229,0.183,1.017-0.251,1.183,0.195c-0.155,0.011-0.342-0.013-0.296,0.198
		c0.354-0.032,0.629,0.632,0.787,0.196c-0.448-0.869,0.765-0.501,1.083-0.493c1.432,0.033,2.886-0.718,2.658,1.083
		c0.457-0.361,0.452-0.541,1.18-0.295c0.189-0.288,0.097-0.484,0.198-0.689c0.615,0.08-0.023,0.36,0.098,0.787
		c0.684,0.028,0.8-0.512,1.181-0.787c0.163,0.102,0.106,0.418,0.197,0.592c0.365-0.049,0.268-0.559,0.688-0.295
		c0.04,0.236-0.181,0.214-0.098,0.49c1.19-0.203,1.753-0.689,3.051-0.295c-0.068-1.008,1.026-0.773,1.673-0.688
		c-0.272,0.322-0.729,0.144-0.887,0.395c0.586,0.684,1.158,0.184,1.378-0.492c0.314,0.176,0.249,0.438,0.198,0.787
		c1.19,0.217,3.114,0.504,3.248-0.888c0.563-0.015,0.032,0.748,0.394,0.888c0.376,0.145,0.735-0.295,0.983-0.688
		c-0.031,0.229,0.016,0.378,0.099,0.491c0.329-0.026,0.671-0.428,0.295-0.59c0.164-0.166,0.578-0.078,0.886-0.101
		c-0.022,0.874,1.49,1.021,2.264,0.593c0.453-0.251,0.575-1.234,1.182-0.689c0.021,0.295-0.364,0.335-0.099,0.591
		c0.131,0,0.263,0,0.394,0c0.228-0.22-0.033-0.384,0-0.688c0.415,0.002,0.632-0.187,0.885,0.099
		c-0.165,0.14-0.567-0.159-0.491,0.394c0.619,0.76,0.887-0.021,1.378-0.296c0.514-0.285,1.19-0.555,1.674-0.194
		c-0.31-0.047-0.279,0.246-0.396,0.394c0.984,0.137,0.432-1.448,0.493-1.478c0.199-0.091,0.94,0.572,0.394,0.787
		c0.15,0.211,0.68,0.043,0.591,0.491c-0.176,0.2-0.568-0.34-0.886,0c-0.158,0.913,1.011,0.499,1.671,0.593
		c0.207-0.287-0.026-1.014,0.494-0.984c0.224,0.07,0.027,0.562,0.394,0.492c-0.06-0.354,0.035-0.557,0.296-0.592
		c0.256,0.307,0.003,0.732-0.102,0.984c0.191,0.01,1.265-0.075,1.576-0.688c0.082-0.16-0.069-0.32,0.099-0.395
		c1.059-0.471,1.386,0.355,1.182,0.982c0.442-0.44,0.897-1.176,1.673-0.982c-0.236,0.34-0.443,0.329-0.295,0.885
		c0.934-0.26,2.643,0.233,2.264-1.181c0.619,0.417,1.109-0.504,1.379,0.196c0.26,0.678-0.906,0.201-0.887,0.197
		c-0.013,0.002-0.646,0.221-0.295,0.59c0.396,0.416,1.991-0.147,2.264-0.49c-0.315,0.084-0.307-0.152-0.395-0.297
		c0.855-0.705,0.608,0.392,0.885,0.787c0.277-0.084,0.19-0.531,0.198-0.886c0.89,0.005,2.104-0.325,2.952,0
		c0.066,0.026-0.199,0.201-0.197,0.197c-0.316,0.407,0.805-0.472,0.887-0.296c0.322,0.678-0.795,0.488-0.688,0.885
		c0.89,0.119,1.664-0.121,1.278-0.982c0.896-0.194,0.441,0.604,0.689,0.689c0.865,0.296,0.85-0.684,1.254-0.781
		c-0.158,0.049,0.655,0.231,0.616,0.189c0.082,0.089-0.063,0.385,0,0.492c0.584,0.119,0.04-0.596,0.688-0.887
		c0.662-0.297,2.035,0.014,2.066,0.1c0.07,0.191-0.365,0.361-0.197,0.591c1.027,0.481,0.852-0.601,1.281-0.886
		c0.192-0.131,0.438,0.125,0.688,0.099c0.49-0.054,0.804-0.397,1.279-0.296c0.688,0.146,1.271-0.016,1.869,0.1
		c-0.16,0.2-0.318,0.401-0.394,0.688c0.534,0.217,0.938-0.205,1.377-0.197c0.157,0.004,0.155,0.292,0.394,0.197
		c0.433-0.171,0.467-0.758,0.688-0.887c0.619-0.352,1.176,0.113,2.166-0.098c-0.048,0.223-0.195,0.502,0,0.688
		c1.136,0.251,1.024-0.748,1.869-0.787c0.013,0.241,0.016,0.474-0.099,0.591c1.196-0.322,4.547,0.393,4.43-0.689
		c-0.293-0.265-0.721,0.429-0.787-0.196c0.932-0.241,0.966,0.411,1.378,0.688c-0.04-0.574,0.808-1.084,1.674-0.688
		c-0.303,0.567-1.251-0.042-1.183,0.788c2.408-0.438,5.955,0.089,8.365-0.788c-0.188,0.315,0.416,0.397,0.492,0.395
		c3.031-0.12,7.6-0.346,11.022-0.395c3.284-0.046,6.839-0.298,10.235-0.099c1.771,0.104,3.562,0.049,5.117,0
		c1.575-0.05,3.412-0.315,5.021-0.295c0.53,0.006,1.079,0.301,1.575,0.295c0.131,0,0.359-0.273,0.49-0.295
		c1.275-0.203,2.803,0.141,4.133,0.098c2.459-0.079,5.086,0.013,7.58,0.101c1.115,0.038,2.397,0.004,3.443,0.195
		c1.225,0.226,1.521,0.692,2.756,0.395c0.553-0.135,1.577-1.403,1.575-1.379c0.047-0.508-0.562-0.489-0.888-0.983
		c-0.26-0.396-0.568-1.279-0.588-1.771c-0.027-0.631-0.205-0.445-0.297-0.887c-0.047-0.229,0.221-0.353,0.196-0.394
		c-0.237-0.419-0.868-0.495-1.278-0.786c-0.713-0.509-0.768-1.334-1.279-0.887c-0.25,0.215-1.594-0.437-2.264-0.592
		c-0.682-0.157-1.438-0.09-2.066-0.196c-0.52-0.087-0.999-0.372-1.575-0.394c-0.469-0.018-0.996,0.139-1.478,0.098
		c-1.43-0.117-2.859-0.592-4.23-0.59c-1.434,0.001-2.824,0.238-4.23,0.197c-0.688-0.021-1.455-0.254-2.166-0.296
		c-1.824-0.108-3.189,0-4.625-0.196c-0.842-0.116-2.211,0.376-3.053,0.196c-0.504-0.108-0.228-0.022-0.787,0.099
		c-0.545,0.117-1.83-0.241-2.656-0.197c-0.762,0.04-0.959,0.381-1.18-0.197c-1.438,0.641-2.979-0.359-4.727-0.294
		c-0.209,0.009-0.452,0.256-0.689,0.294c-0.632,0.104-1.517-0.344-2.361-0.393c-0.803-0.047-1.594,0.273-2.461,0.295
		c-0.996,0.025-1.95-0.446-2.754-0.295c-0.133,0.025-0.287,0.197-0.395,0.196c-0.475-0.001-1.006-0.399-1.378-0.294
		c-0.291,0.08-0.106,0.333-0.396,0.294c-0.108-0.014-0.276-0.353-0.393-0.394c-0.55-0.191-1.523-0.053-1.87,0.296
		c-0.151,0.149,0.089,0.529-0.296,0.491c-0.229-0.098-0.316-0.338-0.295-0.688c-2.313,0.102-4.784,0.283-6.988,0.294
		c-0.453,0.003-0.863-0.376-1.279-0.394c-0.137-0.006-1.807,0.212-1.771,0.197c-0.289,0.119-0.457,0.996-0.983,0.59
		c0.055-0.24,0.381-0.21,0.295-0.59c-0.832,0.357-1.719-0.258-2.656-0.197c-0.11,0.006-0.365,0.277-0.492,0.296
		c-0.354,0.05-0.53-0.149-0.887-0.196c-0.945-0.128-2.752,0.049-3.148,0.49c-0.031-0.227,0.016-0.377,0.1-0.49
		c-1.567,0.249-3.291-0.277-4.528,0c-0.472,0.104-0.269-0.023-0.688-0.1c-0.916-0.164-0.683,1.17-1.574,0.787
		c-0.004-0.398,0.672-0.115,0.59-0.59c-0.788,0.291-1.545-0.105-2.361-0.098c-0.643,0.005-1.579,0.178-2.462,0.098
		c-0.28-0.025-0.843-0.037-0.981,0c-0.545,0.138-0.201,0.159-0.688,0.099c-0.313-0.04-0.972,0.261-1.379,0.196
		c-0.325-0.052-0.47-0.388-0.689-0.393c-0.382-0.012-0.698,0.543-1.081,0.196c0.028,0.229,0.209,0.423-0.099,0.491
		c-0.056-1.133-1.114-0.184-1.675,0.099c0.422-0.9-1.346-0.306-1.477-0.296c-1.24,0.106-2.65-0.326-2.756,0.494
		c-0.318-1.227-1.398-0.283-2.46-0.494c-1.604-0.316-4.135-0.465-5.512,0.296c-0.082-0.114-0.13-0.264-0.098-0.492
		c-1.74,0.397-4.025-0.007-6.005,0.492c-0.009-0.269,0.165-0.198,0-0.394c-1.116,0.441-2.166-0.34-3.444,0.197
		c0.015-0.245,0.02-0.479-0.195-0.492c-0.359,0.475-0.955,0.154-1.477,0.295c-0.228,0.063-0.435,0.379-0.689,0.394
		c-0.141,0.007-0.299-0.257-0.491-0.296c-0.798-0.157-1.291,0.344-1.871,0.395c0.036-0.003-0.072-0.189-0.197-0.197
		c-0.357-0.021-1.094,0.317-1.377,0.297c-0.382-0.031-0.696-0.343-0.886,0.195c-0.347-0.246-0.596-0.373-0.887,0
		c-0.107-0.352-0.371-0.546-0.688-0.689c-0.075,0.252-0.098,0.56-0.295,0.689c-0.243-0.2,0.329-0.402,0-0.689
		c-1.068,0.557-2.72-0.135-3.445,0.592c-0.604-1.08-1.322,0.113-1.967,0.393c0.216-0.43-0.08-0.949-0.492-0.688
		c0.529,0.224,0.102,0.937-0.296,0.688c0.5-0.964-0.947-1.154-1.28-0.295c0.071-0.301-0.1-0.358-0.098-0.59
		c-0.614,0.078-1.538,0.52-2.361,0.395c-0.236-0.037-0.357-0.28-0.592-0.297c-0.384-0.027-0.773,0.141-1.181,0.099
		c-0.584-0.059-1.052-0.399-1.477-0.296c-0.2,0.049-0.212,0.311-0.394,0.296c-0.299-0.023-0.582-0.343-0.885-0.394
		c-0.573-0.096-1.321-0.083-1.87-0.099c-0.647-0.019-1.549,0.247-1.87,0.196c-0.111-0.017-0.352-0.389-0.492-0.393
		c-0.401-0.014-1.001,0.396-1.575,0.393c-0.257-0.001-0.535-0.278-0.787-0.294c-0.458-0.03-1.539,0.396-1.87,0.394
		c-0.038,0,0.004-0.223-0.197-0.197c-0.384,0.051-2.04,0.188-2.263,0.394c-0.179,0.163,0.121,0.614-0.198,0.688
		c-0.276-0.236,0.137-0.596-0.098-0.787c-0.438,0.277-0.58-0.191-0.984-0.197c-0.232-0.002-0.231,0.223-0.491,0.296
		c-0.267,0.075-1.518,0.056-1.673,0c-0.062-0.022-0.226-0.385-0.296-0.394c-0.145-0.018-0.288,0.26-0.493,0.295
		c-0.148,0.026-0.854-0.254-1.377-0.197c-0.381,0.041-0.622,0.303-0.886,0.296c-0.312-0.01-0.631-0.247-0.788-0.196
		c-0.257,0.084-0.037,0.4-0.295,0.395c-0.13-0.005-0.417-0.367-0.589-0.395c-0.175-0.029-0.424,0.225-0.689,0.196
		c-0.228-0.023-0.261-0.208-0.393-0.196c-0.12,0.01-0.274,0.277-0.396,0.295c-0.37,0.055-0.764-0.342-1.181-0.395
		c-0.038-0.004-0.376,0.198-0.493,0.197c-0.627-0.004-1.101-0.668-1.476,0.099c-0.338-0.808-1.163-0.21-1.574-0.196
		c-0.117,0.003-0.364-0.188-0.492-0.197c-0.933-0.068-2.177,0.58-2.756,0.492c-0.19-0.029-0.306-0.292-0.492-0.295
		c-0.224-0.004-0.359,0.277-0.591,0.295c-0.396,0.029-0.637-0.374-1.181-0.197c-0.184,0.061-1.184,0.309-1.279,0.297
		c-0.106-0.017-0.036-0.361-0.098-0.395c-0.317-0.174-1.172,0.269-1.772,0.295c-0.649,0.029-0.552,0.141-0.984,0.395
		c-0.151-0.244-0.06-0.729-0.492-0.689c-0.008,0.154,0.014,0.341-0.196,0.295c-0.391-0.738-1.153-0.254-1.772-0.295
		c-0.941-0.063-2.005-0.326-3.051-0.394c-0.848-0.057-1.96,0.219-2.755,0c-0.459-0.127-0.676-0.633-1.182-0.69
		c-0.859-0.094-1.825,0.375-2.756,0.198C19.515,93.246,19.38,93.09,19.204,93.082z M79.141,104.303
		c-0.007-0.218,0.172-1.348,0.492-0.984C79.948,103.68,79.686,104.465,79.141,104.303z M28.16,105.188
		c0.424-0.989,1.074-0.646,1.87-0.787C29.575,105.229,28.846,104.593,28.16,105.188z M92.82,104.303
		c-0.86,0.314-0.533-1.339,0.297-0.984C93.148,103.383,92.902,104.271,92.82,104.303z M102.07,103.909
		c-0.627-0.288-0.217-1.356,0.395-1.083c-0.033,0.131-0.172,0.154-0.195,0.296c0.17,0.19,0.592-0.595,0.983-0.198
		C103.275,103.668,102.122,103.236,102.07,103.909z M110.143,102.631C109.326,104.107,107.814,102.102,110.143,102.631
		L110.143,102.631z M122.346,103.021c-0.785-0.686,0.217-1.179,1.084-1.082C123.23,102.468,122.502,102.457,122.346,103.021z
		 M123.822,102.826c-0.006-0.957,0.113-0.85,0.787-0.788C124.436,102.391,124.375,102.854,123.822,102.826z M125.594,102.531
		c0.141,0.24-0.273-0.071-0.295-0.395c0.006,0.098,0.208-0.4,0.49-0.296C126.137,101.971,126.016,103.257,125.594,102.531z" class=""></path>
  </g>
</svg></g> <!----></g><g id="shape_PJVDGTOmh5" transform="translate(95.86427512629035,122.3711221254687) rotate(0,13.774399999999993,29) scale(0.848356309650053,0.848356309650053)" filter="" style="cursor: move; opacity: 1;"><g><rect fill="rgba(0,0,0,0)" width="47.548799999999986" height="78" x="-10" y="-10"></rect><svg version="1.1" id="图层_1" x="0px" y="0px" width="27.548799999999986" height="58" viewBox="17.876 0 164.248 200" enable-background="new 17.876 0 164.248 200" xml:space="preserve" xmlns="http://www.w3.org/2000/svg" xmlns:xlink="http://www.w3.org/1999/xlink" xmlns:xml="http://www.w3.org/XML/1998/namespace" preserveAspectRatio="none" data-parent="shape_PJVDGTOmh5">
  <path fill="#e60012" d="M17.876,0v200l82.12-49.086L182.124,200V0H17.876z M25.712,2.417h2.238v8.868h-2.238V2.417z M25.712,20.151
	h2.238v8.862h-2.238V20.151z M25.712,37.877h2.238v8.868h-2.238V37.877z M25.712,55.613h2.238v8.866h-2.238V55.613z M25.712,73.348
	h2.238v8.866h-2.238V73.348z M25.712,91.076h2.238v8.868h-2.238V91.076z M25.712,108.809h2.238v8.867h-2.238V108.809z
	 M25.712,126.542h2.238v8.868h-2.238V126.542z M25.712,144.277h2.238v8.863h-2.238V144.277z M25.712,162.007h2.238v8.863h-2.238
	V162.007z M25.712,186.191v-6.453h2.238v2.501l2.151-1.281l1.146,1.92L25.712,186.191z M38.523,178.529l-1.146-1.918l7.275-4.352
	l1.146,1.924L38.523,178.529z M53.075,169.83l-1.146-1.915l7.271-4.351l1.146,1.92L53.075,169.83z M67.622,161.137l-1.146-1.924
	l7.275-4.346l1.146,1.919L67.622,161.137z M82.173,152.438l-1.146-1.916l7.276-4.351l1.146,1.92L82.173,152.438z M103.268,143.743
	l-3.271-1.953l-3.271,1.953l-1.145-1.925l4.416-2.639l4.415,2.639L103.268,143.743z M117.816,152.438l-7.274-4.347l1.146-1.92
	l7.276,4.351L117.816,152.438z M132.374,161.137l-7.28-4.346l1.146-1.924l7.279,4.346L132.374,161.137z M146.925,169.83
	l-7.274-4.346l1.146-1.92l7.274,4.351L146.925,169.83z M161.477,178.529l-7.274-4.348l1.146-1.922l7.275,4.346L161.477,178.529z
	 M174.288,186.191l-5.535-3.313l1.146-1.92l2.151,1.281v-2.501h2.238V186.191z M174.288,170.87h-2.238v-8.866h2.238V170.87z
	 M174.288,153.136h-2.238v-8.862h2.238V153.136z M174.288,135.406h-2.238v-8.864h2.238V135.406z M174.288,117.676h-2.238v-8.867
	h2.238V117.676z M174.288,99.941h-2.238v-8.868h2.238V99.941z M174.288,82.21h-2.238v-8.868h2.238V82.21z M174.288,64.479h-2.238
	v-8.866h2.238V64.479z M174.288,46.745h-2.238v-8.868h2.238V46.745z M174.288,29.011h-2.238v-8.863h2.238V29.011z M174.288,11.279
	h-2.238V2.417h2.238V11.279z" class=""></path>
</svg></g> <!----></g>  <!----></svg>